<svg width="96" height="96" viewBox="0 0 96 96" fill="none" xmlns="http://www.w3.org/2000/svg">
<path d="M45.9535 95.4897C71.3351 95.4897 91.911 92.7462 91.911 89.362C91.911 85.9778 71.3351 83.2344 45.9535 83.2344C20.5719 83.2344 -0.00390625 85.9778 -0.00390625 89.362C-0.00390625 92.7462 20.5719 95.4897 45.9535 95.4897Z" fill="#F2F2F2"/>
<path fill-rule="evenodd" clip-rule="evenodd" d="M78.6334 57.2305V86.4659C78.6334 87.5011 77.7605 88.3402 76.6837 88.3402H16.2427C15.1659 88.3402 14.293 87.5011 14.293 86.4659V10.555C14.293 9.51984 15.1659 8.68066 16.2427 8.68066H76.6837C77.7605 8.68066 78.6334 9.51984 78.6334 10.555V45.0896V57.2305Z" fill="white" stroke="#D8D8D8" stroke-width="1.02128"/>
<path fill-rule="evenodd" clip-rule="evenodd" d="M63.6402 4.59806H55.7764V4.08742C55.7764 3.49509 55.3627 3.06348 54.8164 3.06348H39.1296C38.5832 3.06348 38.1696 3.49509 38.1696 4.08742V4.59806H30.3057C30.0535 4.59806 29.8359 4.82506 29.8359 5.11047V13.2949C29.8359 13.5803 30.0535 13.8073 30.3057 13.8073H63.6402C63.8924 13.8073 64.11 13.5803 64.11 13.2949V5.11047C64.11 4.82506 63.8924 4.59806 63.6402 4.59806Z" fill="#FAFAFA" stroke="#D8D8D8" stroke-width="1.02128"/>
<path opacity="0.5" d="M92.931 16.8513C94.6231 16.8513 95.9948 15.4796 95.9948 13.7875C95.9948 12.0954 94.6231 10.7236 92.931 10.7236C91.2389 10.7236 89.8672 12.0954 89.8672 13.7875C89.8672 15.4796 91.2389 16.8513 92.931 16.8513Z" fill="#D8D8D8"/>
<path opacity="0.3" d="M84.7613 11.7453C85.8894 11.7453 86.8039 10.8308 86.8039 9.70271C86.8039 8.57464 85.8894 7.66016 84.7613 7.66016C83.6332 7.66016 82.7188 8.57464 82.7188 9.70271C82.7188 10.8308 83.6332 11.7453 84.7613 11.7453Z" fill="#D8D8D8"/>
<path opacity="0.3" fill-rule="evenodd" clip-rule="evenodd" d="M91.4008 1.53202C90.5548 1.53202 89.8689 2.21788 89.8689 3.06393C89.8689 3.90999 90.5548 4.59585 91.4008 4.59585C92.2469 4.59585 92.9328 3.90999 92.9328 3.06393C92.9328 2.21788 92.2469 1.53202 91.4008 1.53202ZM91.4008 0.510742C92.8109 0.510742 93.954 1.65384 93.954 3.06393C93.954 4.47402 92.8109 5.61713 91.4008 5.61713C89.9908 5.61713 88.8477 4.47402 88.8477 3.06393C88.8477 1.65384 89.9908 0.510742 91.4008 0.510742Z" fill="#D8D8D8"/>
<path fill-rule="evenodd" clip-rule="evenodd" d="M47.4865 44.4259C47.7686 44.4259 47.9972 44.6546 47.9972 44.9366C47.9972 45.2186 47.7686 45.4472 47.4865 45.4472H25.0185C24.7364 45.4472 24.5078 45.2186 24.5078 44.9366C24.5078 44.6546 24.7364 44.4259 25.0185 44.4259H47.4865ZM67.9121 35.2345C68.1941 35.2345 68.4227 35.4631 68.4227 35.7451C68.4227 36.0271 68.1941 36.2557 67.9121 36.2557H25.0185C24.7364 36.2557 24.5078 36.0271 24.5078 35.7451C24.5078 35.4631 24.7364 35.2345 25.0185 35.2345H67.9121ZM67.9121 26.043C68.1941 26.043 68.4227 26.2716 68.4227 26.5536C68.4227 26.8356 68.1941 27.0642 67.9121 27.0642H25.0185C24.7364 27.0642 24.5078 26.8356 24.5078 26.5536C24.5078 26.2716 24.7364 26.043 25.0185 26.043H67.9121Z" fill="#D8D8D8"/>
</svg>
